<svg xmlns="http://www.w3.org/2000/svg" viewBox="0 0 86.964 127.429">
  <defs>
    <style>
      .cls-1, .cls-4 {
        fill: #ececec;
      }

      .cls-1, .cls-13, .cls-2, .cls-7, .cls-8 {
        stroke: #707070;
      }

      .cls-2, .cls-3 {
        fill: #208631;
      }

      .cls-5 {
        fill: #42a942;
      }

      .cls-10, .cls-17, .cls-5 {
        stroke: #0c580c;
      }

      .cls-6 {
        fill: rgba(83,76,76,0.16);
        stroke: rgba(112,112,112,0);
      }

      .cls-7 {
        fill: #020202;
      }

      .cls-18, .cls-20, .cls-8 {
        fill: none;
      }

      .cls-10, .cls-13, .cls-15, .cls-9 {
        fill: lime;
      }

      .cls-9 {
        stroke: rgba(112,112,112,0.6);
      }

      .cls-11, .cls-17 {
        fill: #121010;
      }

      .cls-12 {
        fill: #fff;
      }

      .cls-14 {
        fill: red;
        stroke: red;
      }

      .cls-15, .cls-18 {
        stroke: lime;
      }

      .cls-16 {
        fill: rgba(0,0,0,0.36);
        font-size: 3px;
        font-family: Share Tech Mono;
      }

      .cls-19, .cls-21 {
        stroke: none;
      }

      .cls-21 {
        fill: #707070;
      }
    </style>
  </defs>
  <g id="Group_19" data-name="Group 19" transform="translate(-916.599 -341)">
    <g id="Group_16" data-name="Group 16" transform="translate(26 8)">
      <g id="Rectangle_17" data-name="Rectangle 17" class="cls-1" transform="translate(906.338 396.966) rotate(25)">
        <rect class="cls-19" width="5" height="5"/>
        <rect class="cls-20" x="0.5" y="0.5" width="4" height="4"/>
      </g>
      <g id="Ellipse_33" data-name="Ellipse 33" class="cls-2" transform="translate(906 392)">
        <circle class="cls-19" cx="4" cy="4" r="4"/>
        <circle class="cls-20" cx="4" cy="4" r="3.5"/>
      </g>
      <g id="Rectangle_18" data-name="Rectangle 18" class="cls-1" transform="translate(904.338 400.966) rotate(25)">
        <rect class="cls-19" width="5" height="5"/>
        <rect class="cls-20" x="0.5" y="0.5" width="4" height="4"/>
      </g>
      <g id="Rectangle_19" data-name="Rectangle 19" class="cls-1" transform="translate(902.338 404.966) rotate(25)">
        <rect class="cls-19" width="5" height="5"/>
        <rect class="cls-20" x="0.5" y="0.5" width="4" height="4"/>
      </g>
      <g id="Rectangle_20" data-name="Rectangle 20" class="cls-1" transform="translate(900.338 408.966) rotate(25)">
        <rect class="cls-19" width="5" height="5"/>
        <rect class="cls-20" x="0.5" y="0.5" width="4" height="4"/>
      </g>
      <g id="Path_53" data-name="Path 53" class="cls-3" transform="translate(897 413)">
        <path class="cls-19" d="M 3 5.5 C 1.621500015258789 5.5 0.5 4.378499984741211 0.5 3 C 0.5 1.621500015258789 1.621500015258789 0.5 3 0.5 C 4.378499984741211 0.5 5.5 1.621500015258789 5.5 3 C 5.5 4.378499984741211 4.378499984741211 5.5 3 5.5 Z"/>
        <path class="cls-21" d="M 3 1 C 1.897200107574463 1 1 1.897200107574463 1 3 C 1 4.102799892425537 1.897200107574463 5 3 5 C 4.102799892425537 5 5 4.102799892425537 5 3 C 5 1.897200107574463 4.102799892425537 1 3 1 M 3 0 C 4.65684986114502 0 6 1.34315013885498 6 3 C 6 4.65684986114502 4.65684986114502 6 3 6 C 1.34315013885498 6 0 4.65684986114502 0 3 C 0 1.34315013885498 1.34315013885498 0 3 0 Z"/>
      </g>
      <path id="Path_54" data-name="Path 54" class="cls-1" d="M1139.575,796.047c.927-.854,2.89,0,2.89,0l.734,2.893h2.752l.681-2.893a2.4,2.4,0,0,1,2.368,0c1.188.723.881,1.4.881,2.893s-2.815,3.376-2.815,3.376l-4-.218a4.073,4.073,0,0,1-2.178-.88,5.813,5.813,0,0,1-1.316-2.279S1138.648,796.9,1139.575,796.047Z" transform="translate(1489.321 1684.926) rotate(-150)"/>
    </g>
    <g id="Group_15" data-name="Group 15" transform="translate(26 8)">
      <g id="Rectangle_17-2" data-name="Rectangle 17" class="cls-1" transform="translate(906.338 396.966) rotate(25)">
        <rect class="cls-19" width="5" height="5"/>
        <rect class="cls-20" x="0.5" y="0.5" width="4" height="4"/>
      </g>
      <g id="Ellipse_33-2" data-name="Ellipse 33" class="cls-2" transform="translate(906 392)">
        <circle class="cls-19" cx="4" cy="4" r="4"/>
        <circle class="cls-20" cx="4" cy="4" r="3.5"/>
      </g>
      <g id="Rectangle_18-2" data-name="Rectangle 18" class="cls-1" transform="translate(904.338 400.966) rotate(25)">
        <rect class="cls-19" width="5" height="5"/>
        <rect class="cls-20" x="0.5" y="0.5" width="4" height="4"/>
      </g>
      <g id="Rectangle_19-2" data-name="Rectangle 19" class="cls-1" transform="translate(902.338 404.966) rotate(25)">
        <rect class="cls-19" width="5" height="5"/>
        <rect class="cls-20" x="0.5" y="0.5" width="4" height="4"/>
      </g>
      <g id="Rectangle_20-2" data-name="Rectangle 20" class="cls-1" transform="translate(900.338 408.966) rotate(25)">
        <rect class="cls-19" width="5" height="5"/>
        <rect class="cls-20" x="0.5" y="0.5" width="4" height="4"/>
      </g>
      <g id="Path_53-2" data-name="Path 53" class="cls-3" transform="translate(897 413)">
        <path class="cls-19" d="M 3 5.5 C 1.621500015258789 5.5 0.5 4.378499984741211 0.5 3 C 0.5 1.621500015258789 1.621500015258789 0.5 3 0.5 C 4.378499984741211 0.5 5.5 1.621500015258789 5.5 3 C 5.5 4.378499984741211 4.378499984741211 5.5 3 5.5 Z"/>
        <path class="cls-21" d="M 3 1 C 1.897200107574463 1 1 1.897200107574463 1 3 C 1 4.102799892425537 1.897200107574463 5 3 5 C 4.102799892425537 5 5 4.102799892425537 5 3 C 5 1.897200107574463 4.102799892425537 1 3 1 M 3 0 C 4.65684986114502 0 6 1.34315013885498 6 3 C 6 4.65684986114502 4.65684986114502 6 3 6 C 1.34315013885498 6 0 4.65684986114502 0 3 C 0 1.34315013885498 1.34315013885498 0 3 0 Z"/>
      </g>
      <path id="Path_54-2" data-name="Path 54" class="cls-1" d="M1139.575,796.047c.927-.854,2.89,0,2.89,0l.734,2.893h2.752l.681-2.893a2.4,2.4,0,0,1,2.368,0c1.188.723.881,1.4.881,2.893s-2.815,3.376-2.815,3.376l-4-.218a4.073,4.073,0,0,1-2.178-.88,5.813,5.813,0,0,1-1.316-2.279S1138.648,796.9,1139.575,796.047Z" transform="translate(1489.321 1684.926) rotate(-150)"/>
    </g>
    <g id="Ellipse_33-3" data-name="Ellipse 33" class="cls-2" transform="translate(970 401)">
      <circle class="cls-19" cx="4" cy="4" r="4"/>
      <circle class="cls-20" cx="4" cy="4" r="3.5"/>
    </g>
    <g id="Path_59" data-name="Path 59" class="cls-4" transform="translate(936.133 394)">
      <path class="cls-19" d="M 19.44024658203125 50.92273330688477 C 13.79879760742188 50.92273330688477 9.311507225036621 49.96260452270508 6.103047370910645 48.06902313232422 C 4.322087287902832 47.0179328918457 2.947927236557007 45.66984558105469 2.01872730255127 44.06221389770508 C 1.010967254638672 42.31868362426758 0.4999973177909851 40.22324371337891 0.4999973177909851 37.8340950012207 L 0.4999973177909851 18.69183540344238 C 0.4999973177909851 16.2357349395752 0.9809173345565796 13.85336494445801 1.929397344589233 11.61090469360352 C 2.845627307891846 9.444694519042969 4.157397270202637 7.499134540557861 5.828267097473145 5.828264713287354 C 7.499127388000488 4.157404899597168 9.444697380065918 2.845634698867798 11.61090755462646 1.929404735565186 C 13.85336685180664 0.9809247255325317 16.23573684692383 0.500004768371582 18.69183731079102 0.500004768371582 C 21.1479377746582 0.500004768371582 23.53030776977539 0.9809247255325317 25.77276802062988 1.929404735565186 C 27.93897819519043 2.845634698867798 29.88454818725586 4.157404899597168 31.55540657043457 5.828264713287354 C 33.22627639770508 7.499134540557861 34.53804779052734 9.444694519042969 35.45427703857422 11.61090469360352 C 36.40275573730469 13.85336494445801 36.8836784362793 16.2357349395752 36.8836784362793 18.69183540344238 L 36.8836784362793 37.8340950012207 C 36.8836784362793 40.25394439697266 36.44646835327148 42.35856628417969 35.58417892456055 44.08947372436523 C 34.77943801879883 45.70488357543945 33.57621765136719 47.04822540283203 32.00795745849609 48.08218383789062 C 30.52630805969238 49.05902481079102 28.67099761962891 49.79258346557617 26.4935474395752 50.26246643066406 C 24.46326637268066 50.70058441162109 22.09019660949707 50.92273330688477 19.44024658203125 50.92273330688477 Z"/>
      <path class="cls-21" d="M 18.69183731079102 0.9999961853027344 C 13.96617698669434 0.9999961853027344 9.523366928100586 2.840263366699219 6.181818008422852 6.181816101074219 C 2.840267181396484 9.523365020751953 0.9999961853027344 13.9661750793457 0.9999961853027344 18.69183349609375 L 0.9999961853027344 37.8340950012207 C 0.9999961853027344 40.13425445556641 1.488395690917969 42.14551544189453 2.451618194580078 43.81200408935547 C 3.337226867675781 45.34420394897461 4.651248931884766 46.63159561157227 6.357177734375 47.6384162902832 C 7.965396881103516 48.58755493164062 9.946756362915039 49.30510330200195 12.2462272644043 49.77112579345703 C 14.3796272277832 50.20349502563477 16.80004692077637 50.42272567749023 19.44024658203125 50.42272567749023 C 22.05480766296387 50.42272567749023 24.39238739013672 50.20436477661133 26.38807678222656 49.77370452880859 C 28.50476837158203 49.31693649291992 30.30297660827637 48.60737609863281 31.73273849487305 47.66473388671875 C 33.22646713256836 46.67992401123047 34.37169647216797 45.40201568603516 35.13663864135742 43.86652374267578 C 35.96410751342773 42.20548248291016 36.3836784362793 40.17587280273438 36.3836784362793 37.8340950012207 L 36.3836784362793 18.69183349609375 C 36.3836784362793 13.9661750793457 34.54340744018555 9.523365020751953 31.20185661315918 6.181816101074219 C 27.86030769348145 2.840263366699219 23.4174976348877 0.9999961853027344 18.69183731079102 0.9999961853027344 M 18.69183731079102 -3.814697265625e-06 C 29.01505661010742 -3.814697265625e-06 37.3836784362793 8.368625640869141 37.3836784362793 18.69183349609375 L 37.3836784362793 37.8340950012207 C 37.3836784362793 48.15730285644531 29.76345825195312 51.42272567749023 19.44024658203125 51.42272567749023 C 9.117027282714844 51.42272567749023 -3.814697265625e-06 48.15730285644531 -3.814697265625e-06 37.8340950012207 L -3.814697265625e-06 18.69183349609375 C -3.814697265625e-06 8.368625640869141 8.368618011474609 -3.814697265625e-06 18.69183731079102 -3.814697265625e-06 Z"/>
    </g>
    <path id="Path_40" data-name="Path 40" class="cls-5" d="M1292.837,683.2c-.072.476-.387,42-.387,42l3.445,5.655s1.953-.954,3.778-4.391a11.87,11.87,0,0,0,1.889-6.62c-.038-.686-.06-1.846-.076-3.129-.008-.622-.01-1.383-.01-1.383s1.132-17.159-.341-20.745a31.751,31.751,0,0,0-3.2-6.855C1295.874,684.809,1292.895,683.032,1292.837,683.2Z" transform="translate(-328.452 -285.839)"/>
    <path id="Path_41" data-name="Path 41" class="cls-5" d="M1258.68,683l.441,39.2.034,3.04-3.1,6.332s-5.174-5.95-5.888-9.711-.536-14.441-.536-14.441V697.333l1-5.354h0l3.877-5.936Z" transform="translate(-312.989 -285.787)"/>
    <g id="Ellipse_21" data-name="Ellipse 21" class="cls-6" transform="translate(934.159 464.284)">
      <ellipse class="cls-19" cx="22.391" cy="2.072" rx="22.391" ry="2.072"/>
      <ellipse class="cls-20" cx="22.391" cy="2.072" rx="21.891" ry="1.572"/>
    </g>
    <g id="Group_13" data-name="Group 13" transform="translate(-1 7)">
      <g id="Path_42" data-name="Path 42" class="cls-4" transform="translate(984.729 389.048) rotate(180)">
        <path class="cls-19" d="M 20.77264404296875 47.5477294921875 C 18.2415943145752 47.5477294921875 16.12324523925781 47.40050888061523 14.01166439056396 46.68198776245117 C 12.00777435302734 46.00011825561523 9.989184379577637 44.78458786010742 7.466544628143311 42.74071884155273 C 4.350194931030273 40.2158203125 2.356184720993042 37.26239776611328 1.370564699172974 33.71167755126953 C 0.4954347610473633 30.55899810791016 0.4976747632026672 27.34513854980469 0.4998447597026825 24.23709869384766 L 0.5000547766685486 23.77820777893066 C 0.5000547766685486 20.64955902099609 1.256914734840393 17.61338806152344 2.749624729156494 14.75404834747314 C 4.195964813232422 11.98350811004639 6.26885461807251 9.493428230285645 8.910715103149414 7.352968692779541 C 11.56031513214111 5.206228733062744 14.64757442474365 3.520168542861938 18.08671569824219 2.34160852432251 C 21.65262413024902 1.119608640670776 25.44156455993652 0.4999985992908478 29.34827423095703 0.4999985992908478 C 35.50362396240234 0.4999985992908478 41.36965560913086 2.047768592834473 46.31222534179688 4.975978374481201 C 48.69844436645508 6.389688491821289 50.80402374267578 8.090168952941895 52.57047653198242 10.03019905090332 C 54.35541534423828 11.99053859710693 55.76115417480469 14.16013813018799 56.7486457824707 16.4787483215332 C 57.69591522216797 18.69636917114258 58.19650650024414 21.22030830383301 58.19650650024414 23.77820777893066 C 58.19650650024414 24.23219871520996 58.20338439941406 24.75056838989258 58.21066665649414 25.29936790466309 C 58.24344635009766 27.77014923095703 58.28833389282227 31.15400886535645 57.79867553710938 34.32264709472656 C 57.23367309570312 37.97880935668945 56.06218338012695 40.53442001342773 54.31674575805664 41.91845703125 C 51.2779655456543 44.32925796508789 48.64578628540039 45.74657821655273 45.78201293945312 46.51409912109375 C 43.18283462524414 47.21070861816406 40.52110290527344 47.34700775146484 36.80187606811523 47.34701919555664 C 36.14375305175781 47.34701919555664 35.46818542480469 47.34329986572266 34.75294494628906 47.33934783935547 C 33.98215484619141 47.33509826660156 33.18511581420898 47.33070755004883 32.34854507446289 47.33070755004883 C 31.25717544555664 47.33070755004883 30.2729549407959 47.33852767944336 29.33965492248535 47.35462951660156 C 27.78289413452148 47.38148880004883 26.35695457458496 47.42287826538086 25.09887504577637 47.45938873291016 C 23.46568489074707 47.50679016113281 22.05522537231445 47.5477294921875 20.77264404296875 47.5477294921875 Z"/>
        <path class="cls-21" d="M 29.34827423095703 1 C 25.49683380126953 1 21.76243591308594 1.610519409179688 18.24880599975586 2.814598083496094 C 14.86528396606445 3.974098205566406 11.82939529418945 5.631736755371094 9.225475311279297 7.741458892822266 C 6.637035369873047 9.838626861572266 4.607376098632812 12.27585983276367 3.192855834960938 14.98543930053711 C 1.737823486328125 17.77262878417969 1.000053405761719 20.73094940185547 1.000053405761719 23.77820777893066 L 0.9998435974121094 24.23744773864746 C 0.995513916015625 30.43850898742676 0.9910430908203125 36.85068893432617 7.781303405761719 42.35221862792969 C 12.70114517211914 46.33832931518555 15.46215438842773 47.0477294921875 20.77260589599609 47.0477294921875 C 22.0479736328125 47.0477294921875 23.45514297485352 47.00688934326172 25.08450317382812 46.95958709716797 C 26.34393310546875 46.92303848266602 27.77139472961426 46.88160705566406 29.33102416992188 46.85469818115234 C 30.26702499389648 46.83854675292969 31.25400543212891 46.8306999206543 32.34836578369141 46.8306999206543 C 33.18643569946289 46.8306999206543 33.984375 46.83509826660156 34.75603485107422 46.83935928344727 C 35.47050476074219 46.84329986572266 36.14535522460938 46.84701919555664 36.80198669433594 46.84701919555664 C 40.47948455810547 46.84701919555664 43.10663604736328 46.71352005004883 45.65262603759766 46.03115844726562 C 48.44710540771484 45.28218841552734 51.02335357666016 43.89300918579102 54.00608444213867 41.52667999267578 C 55.64963531494141 40.22342681884766 56.75939559936523 37.77394866943359 57.30453491210938 34.24628829956055 C 57.78781509399414 31.11891937255859 57.74324417114258 27.75918769836426 57.710693359375 25.3060188293457 C 57.70339584350586 24.75550842285156 57.69649505615234 24.23552894592285 57.69649505615234 23.77820777893066 C 57.69649505615234 21.32281875610352 57.1966552734375 18.8004093170166 56.28863525390625 16.67466735839844 C 55.32318496704102 14.40782928466797 53.94782638549805 12.28555679321289 52.20076370239258 10.36682891845703 C 50.4677734375 8.463539123535156 48.40083312988281 6.794528961181641 46.05736541748047 5.406147003173828 C 41.19190216064453 2.523616790771484 35.41399383544922 1 29.34827423095703 1 M 29.34827423095703 0 C 42.20156478881836 0 53.12499618530273 6.694530487060547 57.20866394042969 16.28282928466797 C 58.13344573974609 18.44779777526855 58.69649505615234 21.05972862243652 58.69649505615234 23.77820777893066 C 58.69649505615234 28.26946830749512 59.36714553833008 38.55184936523438 54.62740325927734 42.31023788452148 C 48.17894744873047 47.42607116699219 43.77527618408203 47.84701538085938 36.80198669433594 47.84701538085938 C 35.42913055419922 47.84701538085938 33.95567321777344 47.8306999206543 32.34836578369141 47.8306999206543 C 31.3974609375 47.8306999206543 30.40085792541504 47.83639144897461 29.34827423095703 47.85454940795898 C 25.82179260253906 47.91538238525391 23.07840347290039 48.04772567749023 20.77260208129883 48.04772567749023 C 15.31787872314453 48.04772567749023 12.30885696411133 47.30751419067383 7.151782989501953 43.12919998168945 C -0.1852760314941406 37.18464660644531 5.340576171875e-05 30.13430786132812 5.340576171875e-05 23.77820777893066 C 5.340576171875e-05 10.64587020874023 13.13970565795898 0 29.34827423095703 0 Z"/>
      </g>
      <g id="Ellipse_22" data-name="Ellipse 22" class="cls-1" transform="translate(978 354)">
        <ellipse class="cls-19" cx="5" cy="9" rx="5" ry="9"/>
        <ellipse class="cls-20" cx="5" cy="9" rx="4.5" ry="8.5"/>
      </g>
      <g id="Ellipse_23" data-name="Ellipse 23" class="cls-7" transform="translate(984 357)">
        <ellipse class="cls-19" cx="2" cy="6" rx="2" ry="6"/>
        <ellipse class="cls-20" cx="2" cy="6" rx="1.5" ry="5.5"/>
      </g>
      <g id="Group_12" data-name="Group 12">
        <g id="Ellipse_24" data-name="Ellipse 24" class="cls-1" transform="translate(932.464 371.726) rotate(177)">
          <ellipse class="cls-19" cx="5" cy="9" rx="5" ry="9"/>
          <ellipse class="cls-20" cx="5" cy="9" rx="4.5" ry="8.5"/>
        </g>
        <g id="Path_48" data-name="Path 48" transform="translate(926.315 369.044) rotate(177)">
          <path class="cls-19" d="M 1.994514465332031 11.5 C 1.833524465560913 11.5 1.430734515190125 11.20425033569336 1.058654427528381 10.08491992950439 C 0.6984044909477234 9.001190185546875 0.5000044703483582 7.550469875335693 0.5000044703483582 6 C 0.5000044703483582 4.449530124664307 0.6984044909477234 2.998810052871704 1.058654427528381 1.915079951286316 C 1.430734515190125 0.7957500219345093 1.833524465560913 0.5 1.994514465332031 0.5 C 2.155504465103149 0.5 2.558294534683228 0.7957500219345093 2.930374383926392 1.915079951286316 C 3.290624380111694 2.998810052871704 3.48902440071106 4.449530124664307 3.48902440071106 6 C 3.48902440071106 7.550469875335693 3.290624380111694 9.001190185546875 2.930374383926392 10.08491992950439 C 2.558294534683228 11.20425033569336 2.155504465103149 11.5 1.994514465332031 11.5 Z"/>
          <path class="cls-21" d="M 1.994514465332031 1.093635559082031 C 1.625646352767944 1.568423271179199 1.000004529953003 3.243834495544434 1.000004529953003 6 C 1.000004529953003 8.756165504455566 1.625646352767944 10.4315767288208 1.994514465332031 10.90636444091797 C 2.363382577896118 10.4315767288208 2.989024639129639 8.756165504455566 2.989024639129639 6 C 2.989024639129639 3.243834495544434 2.363382577896118 1.568423271179199 1.994514465332031 1.093635559082031 M 1.994514465332031 0 C 3.096054553985596 0 3.98902440071106 2.68628978729248 3.98902440071106 6 C 3.98902440071106 9.31371021270752 3.096054553985596 12 1.994514465332031 12 C 0.8929743766784668 12 4.529953002929688e-06 9.31371021270752 4.529953002929688e-06 6 C 4.529953002929688e-06 2.68628978729248 0.8929743766784668 0 1.994514465332031 0 Z"/>
        </g>
      </g>
      <path id="Path_43" data-name="Path 43" class="cls-8" d="M1226.558,766.451s-3.375,2.843-3.918,5.925,1.747,6.4,1.747,6.4" transform="translate(-247 -398.035)"/>
      <path id="Path_44" data-name="Path 44" class="cls-1" d="M1226.285,766.451s-3.145,2.809-3.65,5.853,1.627,6.326,1.627,6.326" transform="matrix(-0.899, 0.438, -0.438, -0.899, 2371.809, 532.057)"/>
      <path id="Path_45" data-name="Path 45" class="cls-8" d="M1181.057,772.58c1.428.657,8.91,1.727,9.395,2.5s.987,4.6.987,4.6,20.8.113,21.7,0,.519-3.445,1.149-4.6,7.981-2.5,7.981-2.5" transform="translate(-246.708 -397.396)"/>
      <g id="Group_10" data-name="Group 10" transform="translate(0 -8)">
        <g id="Ellipse_26" data-name="Ellipse 26" class="cls-9" transform="translate(934 362)">
          <ellipse class="cls-19" cx="7" cy="6.5" rx="7" ry="6.5"/>
          <ellipse class="cls-20" cx="7" cy="6.5" rx="6.5" ry="6"/>
        </g>
        <g id="Ellipse_28" data-name="Ellipse 28" class="cls-10" transform="translate(935 363)">
          <ellipse class="cls-19" cx="6" cy="5.5" rx="6" ry="5.5"/>
          <ellipse class="cls-20" cx="6" cy="5.5" rx="5.5" ry="5"/>
        </g>
        <ellipse id="Ellipse_29" data-name="Ellipse 29" class="cls-11" cx="4" cy="3.5" rx="4" ry="3.5" transform="translate(937 365)"/>
        <circle id="Ellipse_30" data-name="Ellipse 30" class="cls-12" cx="2" cy="2" r="2" transform="translate(940 365)"/>
      </g>
      <g id="Group_11" data-name="Group 11" transform="translate(28 -8)">
        <g id="Ellipse_26-2" data-name="Ellipse 26" class="cls-9" transform="translate(934 362)">
          <ellipse class="cls-19" cx="7" cy="6.5" rx="7" ry="6.5"/>
          <ellipse class="cls-20" cx="7" cy="6.5" rx="6.5" ry="6"/>
        </g>
        <g id="Ellipse_28-2" data-name="Ellipse 28" class="cls-10" transform="translate(935 363)">
          <ellipse class="cls-19" cx="6" cy="5.5" rx="6" ry="5.5"/>
          <ellipse class="cls-20" cx="6" cy="5.5" rx="5.5" ry="5"/>
        </g>
        <ellipse id="Ellipse_29-2" data-name="Ellipse 29" class="cls-11" cx="4" cy="3.5" rx="4" ry="3.5" transform="translate(937 365)"/>
        <circle id="Ellipse_30-2" data-name="Ellipse 30" class="cls-12" cx="2" cy="2" r="2" transform="translate(940 365)"/>
      </g>
      <path id="Path_46" data-name="Path 46" class="cls-1" d="M1178.674,744.558a89.781,89.781,0,0,0,10.348.478,31.959,31.959,0,0,0,4.2-.478,7.89,7.89,0,0,1,3.014-.791c5.244-.317,10.247-.66,13.8.791s15.285.478,15.285.478" transform="translate(-247 -398)"/>
      <path id="Path_47" data-name="Path 47" class="cls-1" d="M1198.5,735.5a6.6,6.6,0,0,0-.587,2.8,4.818,4.818,0,0,0,.587,2.288h1.691a4.232,4.232,0,0,1-.766-2.288,7.576,7.576,0,0,1,.766-2.8" transform="translate(-246 -399)"/>
      <g id="Ellipse_31" data-name="Ellipse 31" class="cls-13" transform="translate(952 334)">
        <circle class="cls-19" cx="2" cy="2" r="2"/>
        <circle class="cls-20" cx="2" cy="2" r="1.5"/>
      </g>
    </g>
    <g id="Group_8" data-name="Group 8" transform="translate(940.387 406.047)">
      <g id="Ellipse_20" data-name="Ellipse 20" class="cls-14">
        <ellipse class="cls-19" cx="0.498" cy="0.542" rx="0.498" ry="0.542"/>
        <ellipse class="cls-20" cx="0.498" cy="0.542" rx="0.002" ry="0.042"/>
      </g>
      <g id="Rectangle_7" data-name="Rectangle 7" class="cls-15" transform="translate(1.161)">
        <rect class="cls-19" width="1.078" height="1.083" rx="0.539"/>
        <rect class="cls-20" x="0.5" y="0.5" width="0.078" height="0.083" rx="0.039"/>
      </g>
      <g id="Rectangle_8" data-name="Rectangle 8" class="cls-15" transform="translate(2.323)">
        <rect class="cls-19" width="1.078" height="1.083" rx="0.539"/>
        <rect class="cls-20" x="0.5" y="0.5" width="0.078" height="0.083" rx="0.039"/>
      </g>
      <g id="Rectangle_9" data-name="Rectangle 9" class="cls-15" transform="translate(0 1.25)">
        <rect class="cls-19" width="1.078" height="1.083" rx="0.539"/>
        <rect class="cls-20" x="0.5" y="0.5" width="0.078" height="0.083" rx="0.039"/>
      </g>
      <g id="Rectangle_10" data-name="Rectangle 10" class="cls-15" transform="translate(0 2.499)">
        <rect class="cls-19" width="1.078" height="1.083" rx="0.539"/>
        <rect class="cls-20" x="0.5" y="0.5" width="0.078" height="0.083" rx="0.039"/>
      </g>
      <g id="Rectangle_11" data-name="Rectangle 11" class="cls-15" transform="translate(1.161 1.25)">
        <rect class="cls-19" width="1.078" height="1.083" rx="0.539"/>
        <rect class="cls-20" x="0.5" y="0.5" width="0.078" height="0.083" rx="0.039"/>
      </g>
      <g id="Rectangle_13" data-name="Rectangle 13" class="cls-15" transform="translate(1.161 2.499)">
        <rect class="cls-19" width="1.078" height="1.083" rx="0.539"/>
        <rect class="cls-20" x="0.5" y="0.5" width="0.078" height="0.083" rx="0.039"/>
      </g>
      <g id="Rectangle_14" data-name="Rectangle 14" class="cls-15" transform="translate(2.323 2.499)">
        <rect class="cls-19" width="1.078" height="1.083" rx="0.539"/>
        <rect class="cls-20" x="0.5" y="0.5" width="0.078" height="0.083" rx="0.039"/>
      </g>
      <g id="Rectangle_15" data-name="Rectangle 15" class="cls-15" transform="translate(1.161 3.832)">
        <rect class="cls-19" width="1.078" height="1.083" rx="0.539"/>
        <rect class="cls-20" x="0.5" y="0.5" width="0.078" height="0.083" rx="0.039"/>
      </g>
      <g id="Rectangle_16" data-name="Rectangle 16" class="cls-15" transform="translate(0 3.832)">
        <rect class="cls-19" width="1.078" height="1.083" rx="0.539"/>
        <rect class="cls-20" x="0.5" y="0.5" width="0.078" height="0.083" rx="0.039"/>
      </g>
    </g>
    <text id="TYP01" class="cls-16" transform="translate(955 405)"><tspan x="-4.748" y="0">TYP01</tspan></text>
    <g id="Rectangle_17-3" data-name="Rectangle 17" class="cls-1" transform="matrix(0.695, -0.719, 0.719, 0.695, 973.937, 408.882)">
      <rect class="cls-19" width="5" height="5"/>
      <rect class="cls-20" x="0.5" y="0.5" width="4" height="4"/>
    </g>
    <g id="Rectangle_18-3" data-name="Rectangle 18" class="cls-1" transform="translate(977.349 412.395) rotate(-68)">
      <rect class="cls-19" width="5" height="5"/>
      <rect class="cls-20" x="0.5" y="0.5" width="4" height="4"/>
    </g>
    <g id="Rectangle_19-3" data-name="Rectangle 19" class="cls-1" transform="translate(981.874 414.285) rotate(-81)">
      <rect class="cls-19" width="5" height="5"/>
      <rect class="cls-20" x="0.5" y="0.5" width="4" height="4"/>
    </g>
    <g id="Rectangle_20-3" data-name="Rectangle 20" class="cls-1" transform="translate(986.545 415.068) rotate(-94)">
      <rect class="cls-19" width="5" height="5"/>
      <rect class="cls-20" x="0.5" y="0.5" width="4" height="4"/>
    </g>
    <g id="Path_53-3" data-name="Path 53" class="cls-3" transform="translate(989.057 413.931) rotate(-71)">
      <path class="cls-19" d="M 3 5.5 C 1.621500015258789 5.5 0.5 4.378499984741211 0.5 3 C 0.5 1.621500015258789 1.621500015258789 0.5 3 0.5 C 4.378499984741211 0.5 5.5 1.621500015258789 5.5 3 C 5.5 4.378499984741211 4.378499984741211 5.5 3 5.5 Z"/>
      <path class="cls-21" d="M 3 1 C 1.897200107574463 1 1 1.897200107574463 1 3 C 1 4.102799892425537 1.897200107574463 5 3 5 C 4.102799892425537 5 5 4.102799892425537 5 3 C 5 1.897200107574463 4.102799892425537 1 3 1 M 3 0 C 4.65684986114502 0 6 1.34315013885498 6 3 C 6 4.65684986114502 4.65684986114502 6 3 6 C 1.34315013885498 6 0 4.65684986114502 0 3 C 0 1.34315013885498 1.34315013885498 0 3 0 Z"/>
    </g>
    <path id="Path_54-3" data-name="Path 54" class="cls-1" d="M1139.575,796.047c.927-.854,2.89,0,2.89,0l.734,2.893h2.752l.681-2.893a2.4,2.4,0,0,1,2.368,0c1.188.723.881,1.4.881,2.893s-2.815,3.376-2.815,3.376l-4-.218a4.073,4.073,0,0,1-2.178-.88,5.813,5.813,0,0,1-1.316-2.279S1138.648,796.9,1139.575,796.047Z" transform="matrix(0.799, 0.602, -0.602, 0.799, 563.322, -919.046)"/>
    <g id="Group_17" data-name="Group 17" transform="translate(0 -2)">
      <path id="Path_55" data-name="Path 55" class="cls-1" d="M1212.921,839.113a21.042,21.042,0,0,1,1.063,5.38,23.618,23.618,0,0,1-.3,4.723" transform="translate(-247 -390)"/>
      <path id="Path_56" data-name="Path 56" class="cls-1" d="M1213.3,838.643a48.849,48.849,0,0,1,.683,5.851,30.412,30.412,0,0,1-.318,5.219" transform="translate(-251 -388)"/>
    </g>
    <g id="Path_57" data-name="Path 57" class="cls-4" transform="translate(962 457)">
      <path class="cls-19" d="M 7.173593997955322 6.606284618377686 C 6.234884262084961 6.606284618377686 5.05320405960083 6.447555065155029 3.91042423248291 6.294054985046387 C 2.843034267425537 6.150674819946289 1.83484423160553 6.015254974365234 1.071774125099182 6.015254974365234 C 0.8916341662406921 6.015254974365234 0.7669242024421692 5.954044818878174 0.6547941565513611 5.810575008392334 C -0.07591658085584641 4.875673294067383 0.3661216497421265 1.564054489135742 0.8448901772499084 -0.4718383550643921 C 1.45099401473999 -0.7241203188896179 3.258837938308716 -1.402465105056763 5.171264171600342 -1.402465105056763 C 5.999994277954102 -1.402465105056763 6.894684314727783 -0.3180951476097107 7.625924110412598 1.572614789009094 C 8.266504287719727 3.228914737701416 8.649293899536133 5.19388484954834 8.649293899536133 6.136714935302734 C 8.649293899536133 6.219054698944092 8.649293899536133 6.331814765930176 8.397224426269531 6.439754962921143 C 8.139194488525391 6.550254821777344 7.727504253387451 6.606284618377686 7.173593997955322 6.606284618377686 Z"/>
      <path class="cls-21" d="M 5.171264171600342 -0.9024653434753418 C 3.553878307342529 -0.9024653434753418 2.005672931671143 -0.3888559341430664 1.27767276763916 -0.1068973541259766 C 1.157927513122559 0.4464197158813477 0.968815803527832 1.40768575668335 0.8577942848205566 2.415584802627563 C 0.5882711410522461 4.862340450286865 0.9972596168518066 5.442784786224365 1.059512138366699 5.514926910400391 C 1.062854290008545 5.515120029449463 1.066925525665283 5.515254974365234 1.071774005889893 5.515254974365234 C 1.868274211883545 5.515254974365234 2.892564296722412 5.652844905853271 3.976984262466431 5.798504829406738 C 5.103474140167236 5.949814796447754 6.268314361572266 6.106284618377686 7.173593997955322 6.106284618377686 C 7.734519004821777 6.106284618377686 8.016968727111816 6.04459285736084 8.146463394165039 6.001045703887939 C 8.11418342590332 5.173454284667969 7.804485321044922 3.420439720153809 7.159584045410156 1.752964973449707 C 6.401554107666016 -0.2070150375366211 5.614724159240723 -0.9024653434753418 5.171264171600342 -0.9024653434753418 M 5.171264171600342 -1.902464866638184 C 7.656544208526611 -1.902464866638184 9.149293899536133 4.20372486114502 9.149293899536133 6.136714935302734 C 9.149293899536133 6.877753257751465 8.327207565307617 7.106281280517578 7.173590183258057 7.106281280517578 C 5.317994117736816 7.106281280517578 2.604292869567871 6.515254974365234 1.071774005889893 6.515254974365234 C -1.413505554199219 6.515254974365234 0.4173541069030762 -0.8309950828552246 0.4173541069030762 -0.8309950828552246 C 0.4173541069030762 -0.8309950828552246 2.685984134674072 -1.902464866638184 5.171264171600342 -1.902464866638184 Z"/>
    </g>
    <g id="Rectangle_21" data-name="Rectangle 21" class="cls-1" transform="translate(963 453)">
      <rect class="cls-19" width="4" height="1"/>
      <rect class="cls-20" x="0.5" y="0.5" width="3"/>
    </g>
    <g id="Rectangle_22" data-name="Rectangle 22" class="cls-1" transform="translate(963 450)">
      <rect class="cls-19" width="4" height="1"/>
      <rect class="cls-20" x="0.5" y="0.5" width="3"/>
    </g>
    <g id="Group_18" data-name="Group 18" transform="translate(-18 0.658)">
      <path id="Path_55-2" data-name="Path 55" class="cls-1" d="M1214.035,838.708s-.113,3.424,0,6.305a24,24,0,0,1-.346,5.147" transform="translate(-246.722 -391.489)"/>
      <path id="Path_56-2" data-name="Path 56" class="cls-1" d="M1214.932,835.219s-1.032.512-1.262,2.725a36.768,36.768,0,0,0,.343,6.128,25.843,25.843,0,0,1-.343,4.982" transform="translate(-251 -388)"/>
    </g>
    <g id="Path_58" data-name="Path 58" class="cls-4" transform="translate(944 457)">
      <path class="cls-19" d="M 1.643545508384705 6.429558753967285 C 0.3125455379486084 6.429558753967285 -0.6742944717407227 6.196309089660645 -1.289584398269653 5.736268997192383 C -2.853048324584961 4.56729793548584 -0.5822564363479614 0.3006965517997742 0.5183422565460205 -1.402461051940918 L 5.171265602111816 -1.402461051940918 C 5.345175743103027 -1.402461051940918 5.484755516052246 -1.333400964736938 5.623835563659668 -1.178551077842712 C 5.913605690002441 -0.8559110164642334 6.40422534942627 0.1044589802622795 6.434335708618164 2.911388874053955 C 6.44713830947876 4.104972362518311 6.369119167327881 5.211229801177979 6.323448657989502 5.74630069732666 C 5.552186489105225 5.949283599853516 3.527928829193115 6.429558753967285 1.643545508384705 6.429558753967285 Z"/>
      <path class="cls-21" d="M 0.796475887298584 -0.902461051940918 C 0.446136474609375 -0.3367624282836914 -0.1643669605255127 0.707791805267334 -0.6439542770385742 1.838608741760254 C -1.401294231414795 3.624309062957764 -1.530714511871338 4.931678771972656 -0.9901742935180664 5.33582878112793 C -0.4706745147705078 5.724248886108398 0.4400455951690674 5.929558753967285 1.643545627593994 5.929558753967285 C 3.239395380020142 5.929558753967285 4.947826385498047 5.571659564971924 5.853171348571777 5.349894046783447 C 5.903074741363525 4.665399074554443 5.961359024047852 3.551581859588623 5.923545837402344 2.420428991317749 C 5.825765609741211 -0.5047311782836914 5.192495346069336 -0.8992109298706055 5.186175346374512 -0.9013409614562988 C 5.186135292053223 -0.9013609886169434 5.18193531036377 -0.902461051940918 5.171265602111816 -0.902461051940918 L 0.796475887298584 -0.902461051940918 M 0.2492654323577881 -1.902461051940918 C 0.2492654323577881 -1.902461051940918 2.685985565185547 -1.902461051940918 5.171265602111816 -1.902461051940918 C 7.656545639038086 -1.902461051940918 6.789185523986816 6.13671875 6.789185523986816 6.13671875 C 6.789185523986816 6.13671875 4.125833988189697 6.929563522338867 1.643542528152466 6.929563522338867 C 0.4021697044372559 6.929563522338867 -0.7935805320739746 6.731424808502197 -1.588984489440918 6.13671875 C -3.97491455078125 4.352808952331543 0.2492654323577881 -1.902461051940918 0.2492654323577881 -1.902461051940918 Z"/>
    </g>
    <g id="Rectangle_23" data-name="Rectangle 23" class="cls-1" transform="translate(945 453)">
      <rect class="cls-19" width="4" height="1"/>
      <rect class="cls-20" x="0.5" y="0.5" width="3"/>
    </g>
    <g id="Rectangle_24" data-name="Rectangle 24" class="cls-1" transform="translate(945 450)">
      <rect class="cls-19" width="4" height="1"/>
      <rect class="cls-20" x="0.5" y="0.5" width="3"/>
    </g>
    <g id="Ellipse_34" data-name="Ellipse 34" class="cls-2" transform="translate(959 441)">
      <circle class="cls-19" cx="4" cy="4" r="4"/>
      <circle class="cls-20" cx="4" cy="4" r="3.5"/>
    </g>
    <g id="Ellipse_35" data-name="Ellipse 35" class="cls-2" transform="translate(944 441)">
      <circle class="cls-19" cx="4" cy="4" r="4"/>
      <circle class="cls-20" cx="4" cy="4" r="3.5"/>
    </g>
    <g id="Ellipse_36" data-name="Ellipse 36" class="cls-17" transform="translate(962.5 408.5) rotate(90)">
      <ellipse class="cls-19" cx="6" cy="7.5" rx="6" ry="7.5"/>
      <ellipse class="cls-20" cx="6" cy="7.5" rx="5.5" ry="7"/>
    </g>
    <path id="Path_60" data-name="Path 60" class="cls-8" d="M1193.166,788.8c.259,0,4.166-.153,4.827,0s1.313,1.386,1.313,1.386h6.019s.344-1.1.81-1.386,4.864,0,4.864,0" transform="translate(-247 -390)"/>
    <path id="Path_61" data-name="Path 61" class="cls-18" d="M1195.468,804.5h2.326v-2.734h2.4v5.474h2.641v-5.474h2.738V804.5h2.923" transform="translate(-247 -390)"/>
  </g>
</svg>
