<svg xmlns="http://www.w3.org/2000/svg" viewBox="0 0 60.267 52.551">
  <defs>
    <style>
      .cls-1, .cls-2 {
        fill: #ececec;
      }

      .cls-2, .cls-3, .cls-4, .cls-9 {
        stroke: #707070;
      }

      .cls-3 {
        fill: #020202;
      }

      .cls-12, .cls-4 {
        fill: none;
      }

      .cls-5, .cls-6, .cls-9 {
        fill: lime;
      }

      .cls-5 {
        stroke: rgba(112,112,112,0.6);
      }

      .cls-6 {
        stroke: #0c580c;
      }

      .cls-7 {
        fill: #121010;
      }

      .cls-8 {
        fill: #fff;
      }

      .cls-10, .cls-11 {
        stroke: none;
      }

      .cls-11 {
        fill: #707070;
      }
    </style>
  </defs>
  <g id="Group_13" data-name="Group 13" transform="translate(0.035)">
    <g id="Path_42" data-name="Path 42" class="cls-1" transform="translate(57.267 52.551) rotate(180)">
      <path class="cls-10" d="M 18.82869338989258 45.36873626708984 C 15.66648292541504 45.36873626708984 14.10096263885498 45.03988647460938 12.72323322296143 44.54612731933594 C 10.91362285614014 43.89758682250977 9.089082717895508 42.74005508422852 6.807302951812744 40.79292678833008 C 3.986953020095825 38.38621520996094 2.182042837142944 35.56991577148438 1.289422869682312 32.18306732177734 C 0.4962029159069061 29.17336654663086 0.498232901096344 26.10513687133789 0.5002028942108154 23.13792610168457 L 0.5003929138183594 22.69985580444336 C 0.5003929138183594 19.71310615539551 1.186222910881042 16.81502532958984 2.538842916488647 14.08609580993652 C 3.848462820053101 11.44392585754395 5.724992752075195 9.069565773010254 8.116302490234375 7.028985977172852 C 10.51339244842529 4.983466148376465 13.30615329742432 3.376986026763916 16.41702270507812 2.254176139831543 C 19.6419734954834 1.090196132659912 23.068603515625 0.5000061392784119 26.60171318054199 0.5000061392784119 C 32.16849136352539 0.5000061392784119 37.47384262084961 1.974416136741638 41.9442138671875 4.763845920562744 C 44.10329437255859 6.111066341400146 46.00861358642578 7.731786251068115 47.60724258422852 9.580965995788574 C 49.22348403930664 11.45050621032715 50.49649429321289 13.51995658874512 51.39092254638672 15.73182582855225 C 52.24938201904297 17.84852600097656 52.70304107666016 20.25786590576172 52.70304107666016 22.69985580444336 C 52.70304107666016 23.13324546813965 52.70927429199219 23.62810707092285 52.71587371826172 24.15201568603516 C 52.7455940246582 26.51082611083984 52.78628158569336 29.74132537841797 52.34243392944336 32.76641464233398 C 51.83070373535156 36.25414657592773 50.77151107788086 38.69045639038086 49.19429397583008 40.00767517089844 C 46.44571304321289 42.30431747436523 44.06620407104492 43.65415573120117 41.47883224487305 44.38451766967773 C 39.13044357299805 45.04741668701172 36.72282409667969 45.17710494995117 33.35774230957031 45.17711639404297 C 32.76143264770508 45.17712783813477 32.14917373657227 45.17356491088867 31.50096321105957 45.16980743408203 C 30.80216217041016 45.16574478149414 30.07956314086914 45.16154479980469 29.32108306884766 45.16154479980469 C 28.33147239685059 45.16154479980469 27.4389820098877 45.16902542114258 26.59263229370117 45.18439483642578 C 25.18115234375 45.21004486083984 23.88844299316406 45.24956512451172 22.7479133605957 45.28442764282227 C 21.26814270019531 45.32966613769531 19.99017333984375 45.36873626708984 18.82869338989258 45.36873626708984 Z"/>
      <path class="cls-11" d="M 26.60171318054199 0.9999961853027344 C 23.12664222717285 0.9999961853027344 19.75713348388672 1.580196380615234 16.58677291870117 2.724475860595703 C 13.53269195556641 3.826774597167969 10.79201126098633 5.402984619140625 8.440853118896484 7.409317016601562 C 6.101253509521484 9.405776977539062 4.266254425048828 11.72687530517578 2.986824035644531 14.30814743041992 C 1.668724060058594 16.96743583679199 1.000381469726562 19.79081535339355 1.000381469726562 22.69985580444336 L 1.000194549560547 23.13825607299805 C 0.9962730407714844 29.05510520935059 0.9922218322753906 35.17340850830078 7.131851196289062 40.41257476806641 C 11.5649528503418 44.19548797607422 14.0504035949707 44.86872482299805 18.82871246337891 44.86872482299805 C 19.98252105712891 44.86872482299805 21.25692367553711 44.82976531982422 22.73255348205566 44.7846565246582 C 23.87456321716309 44.7497444152832 25.16894340515137 44.71017456054688 26.58355331420898 44.68447494506836 C 27.43317222595215 44.66904449462891 28.32864379882812 44.66154479980469 29.32112312316895 44.66154479980469 C 30.08115196228027 44.66154479980469 30.80455207824707 44.66574478149414 31.5041332244873 44.66980743408203 C 32.15148162841797 44.67356491088867 32.76292419433594 44.67711639404297 33.35769271850586 44.67711639404297 C 36.67892456054688 44.67711639404297 39.05026245117188 44.55049514770508 41.34297180175781 43.90331649780273 C 43.85927200317383 43.19302749633789 46.18180084228516 41.87325668334961 48.87379455566406 39.62391662597656 C 50.35380172729492 38.38786697387695 51.35437393188477 36.05624389648438 51.84772109985352 32.69382476806641 C 52.28581237792969 29.70797538757324 52.24541473388672 26.50038528442383 52.21590423583984 24.15831565856934 C 52.20928192138672 23.63278579711914 52.20303344726562 23.13639640808105 52.20303344726562 22.69985580444336 C 52.20303344726562 20.35562705993652 51.7501335144043 17.94790649414062 50.92739105224609 15.91927528381348 C 50.05358123779297 13.75838470458984 48.80925369262695 11.73588562011719 47.2289924621582 9.907966613769531 C 45.66316223144531 8.096725463867188 43.79604339599609 6.508705139160156 41.67951202392578 5.188037872314453 C 37.28862380981445 2.448196411132812 32.07480239868164 0.9999961853027344 26.60171318054199 0.9999961853027344 M 26.60171318054199 -3.814697265625e-06 C 38.25198364257812 -3.814697265625e-06 48.15301132202148 6.390937805175781 51.85446166992188 15.54438591003418 C 52.69268417358398 17.61117553710938 53.20303344726562 20.10465621948242 53.20303344726562 22.69985580444336 C 53.20303344726562 26.9874267578125 53.8109130859375 36.80349731445312 49.51480102539062 40.39144515991211 C 43.66990280151367 45.27526092529297 39.67830657958984 45.67712020874023 33.35768890380859 45.67712020874023 C 32.11332702636719 45.67712020874023 30.77799034118652 45.66154479980469 29.32111930847168 45.66154479980469 C 28.4592170715332 45.66154479980469 27.55577850341797 45.6669807434082 26.60171318054199 45.6843147277832 C 23.40530014038086 45.74238967895508 20.91870498657227 45.86872863769531 18.82871627807617 45.86872863769531 C 13.88453674316406 45.86872863769531 11.15713119506836 45.16208648681641 6.482734680175781 41.17326736450195 C -0.1675987243652344 35.49829483032227 0.0003814697265625 28.76769638061523 0.0003814697265625 22.69985580444336 C 0.0003814697265625 10.16306686401367 11.91021347045898 -3.814697265625e-06 26.60171318054199 -3.814697265625e-06 Z"/>
    </g>
    <g id="Ellipse_22" data-name="Ellipse 22" class="cls-2" transform="translate(51.168 19.093)">
      <ellipse class="cls-10" cx="4.532" cy="8.592" rx="4.532" ry="8.592"/>
      <ellipse class="cls-12" cx="4.532" cy="8.592" rx="4.032" ry="8.092"/>
    </g>
    <g id="Ellipse_23" data-name="Ellipse 23" class="cls-3" transform="translate(56.606 21.957)">
      <ellipse class="cls-10" cx="1.813" cy="5.728" rx="1.813" ry="5.728"/>
      <ellipse class="cls-12" cx="1.813" cy="5.728" rx="1.313" ry="5.228"/>
    </g>
    <path id="Path_43" data-name="Path 43" class="cls-4" d="M1226.183,766.451s-3.059,2.714-3.551,5.656,1.583,6.113,1.583,6.113" transform="translate(-1173.604 -733.596)"/>
    <path id="Path_44" data-name="Path 44" class="cls-2" d="M3.575.016S.643,2.731.122,5.619s1.37,5.95,1.37,5.95" transform="matrix(-0.899, 0.438, -0.438, -0.899, 14.182, 43.071)"/>
    <path id="Path_45" data-name="Path 45" class="cls-4" d="M1181.057,772.58c1.294.628,8.076,1.648,8.515,2.384a23.2,23.2,0,0,1,.9,4.388s18.857.108,19.666,0,.47-3.288,1.041-4.388,7.234-2.384,7.234-2.384" transform="translate(-1169.455 -733.264)"/>
    <g id="Group_10" data-name="Group 10" transform="translate(11.286 19.093)">
      <g id="Ellipse_26" data-name="Ellipse 26" class="cls-5">
        <ellipse class="cls-10" cx="6.345" cy="6.205" rx="6.345" ry="6.205"/>
        <ellipse class="cls-12" cx="6.345" cy="6.205" rx="5.845" ry="5.705"/>
      </g>
      <g id="Ellipse_28" data-name="Ellipse 28" class="cls-6" transform="translate(0.906 0.955)">
        <ellipse class="cls-10" cx="5.438" cy="5.251" rx="5.438" ry="5.251"/>
        <ellipse class="cls-12" cx="5.438" cy="5.251" rx="4.938" ry="4.751"/>
      </g>
      <ellipse id="Ellipse_29" data-name="Ellipse 29" class="cls-7" cx="3.626" cy="3.341" rx="3.626" ry="3.341" transform="translate(2.719 2.864)"/>
      <ellipse id="Ellipse_30" data-name="Ellipse 30" class="cls-8" cx="1.813" cy="1.909" rx="1.813" ry="1.909" transform="translate(5.438 2.864)"/>
    </g>
    <g id="Group_11" data-name="Group 11" transform="translate(36.665 19.093)">
      <g id="Ellipse_26-2" data-name="Ellipse 26" class="cls-5">
        <ellipse class="cls-10" cx="6.345" cy="6.205" rx="6.345" ry="6.205"/>
        <ellipse class="cls-12" cx="6.345" cy="6.205" rx="5.845" ry="5.705"/>
      </g>
      <g id="Ellipse_28-2" data-name="Ellipse 28" class="cls-6" transform="translate(0.906 0.955)">
        <ellipse class="cls-10" cx="5.438" cy="5.251" rx="5.438" ry="5.251"/>
        <ellipse class="cls-12" cx="5.438" cy="5.251" rx="4.938" ry="4.751"/>
      </g>
      <ellipse id="Ellipse_29-2" data-name="Ellipse 29" class="cls-7" cx="3.626" cy="3.341" rx="3.626" ry="3.341" transform="translate(2.719 2.864)"/>
      <ellipse id="Ellipse_30-2" data-name="Ellipse 30" class="cls-8" cx="1.813" cy="1.909" rx="1.813" ry="1.909" transform="translate(5.438 2.864)"/>
    </g>
    <path id="Path_46" data-name="Path 46" class="cls-2" d="M1178.674,744.51a77.3,77.3,0,0,0,9.38.456,27.575,27.575,0,0,0,3.8-.456,6.884,6.884,0,0,1,2.732-.755c4.753-.3,9.288-.63,12.512.755s13.854.456,13.854.456" transform="translate(-1169.497 -732.521)"/>
    <path id="Path_47" data-name="Path 47" class="cls-2" d="M1198.449,735.5a6.591,6.591,0,0,0-.532,2.669,4.781,4.781,0,0,0,.532,2.184h1.533a4.172,4.172,0,0,1-.694-2.184,7.523,7.523,0,0,1,.694-2.669" transform="translate(-1170.391 -733.113)"/>
    <g id="Ellipse_31" data-name="Ellipse 31" class="cls-9" transform="translate(27.601)">
      <ellipse class="cls-10" cx="1.813" cy="1.909" rx="1.813" ry="1.909"/>
      <ellipse class="cls-12" cx="1.813" cy="1.909" rx="1.313" ry="1.409"/>
    </g>
    <g id="Group_12" data-name="Group 12" transform="translate(-0.04 18.872)">
      <g id="Path_73" data-name="Path 73" class="cls-1" transform="translate(9.963 17.157) rotate(177)">
        <path class="cls-10" d="M 4.508547782897949 16.6840877532959 C 3.900667667388916 16.6840877532959 3.310707807540894 16.40160942077637 2.755057811737061 15.8444881439209 C 2.095407724380493 15.18309879302979 1.536397814750671 14.18063831329346 1.138457775115967 12.94548892974854 C 0.7202077507972717 11.64731884002686 0.5012877583503723 10.14721870422363 0.5053578019142151 8.607358932495117 C 0.5112077593803406 6.392358779907227 0.9677477478981018 4.316368579864502 1.790877819061279 2.761808633804321 C 2.560727834701538 1.307878613471985 3.544907808303833 0.5056086182594299 4.562117576599121 0.5027785897254944 L 4.567527770996094 0.5027686357498169 C 5.175407886505127 0.5027686357498169 5.765367984771729 0.7852486371994019 6.321017742156982 1.342368602752686 C 6.980667591094971 2.003758668899536 7.539677619934082 3.006218671798706 7.937617778778076 4.241368770599365 C 8.355867385864258 5.539538383483887 8.574788093566895 7.039638519287109 8.570717811584473 8.579498291015625 C 8.564867973327637 10.79449844360352 8.108327865600586 12.87048816680908 7.285197734832764 14.425048828125 C 6.515347957611084 15.87897872924805 5.531167984008789 16.68124771118164 4.513957977294922 16.68407821655273 L 4.508547782897949 16.6840877532959 Z"/>
        <path class="cls-11" d="M 4.567527770996094 1.002769470214844 L 4.563507556915283 1.002779006958008 C 3.751737594604492 1.005027770996094 2.902207851409912 1.73145866394043 2.232757568359375 2.995779037475586 C 1.446897983551025 4.479948997497559 1.010997772216797 6.473319053649902 1.00535774230957 8.608678817749023 C 0.9977178573608398 11.50076866149902 1.823477745056152 14.2023983001709 3.109077930450439 15.49139881134033 C 3.567497730255127 15.9510383605957 4.038347721099854 16.1840877532959 4.51256799697876 16.18407821655273 C 5.324337959289551 16.18182945251465 6.173867702484131 15.45539855957031 6.843317985534668 14.19107818603516 C 7.629178047180176 12.7069091796875 8.065077781677246 10.71353912353516 8.070717811584473 8.578178405761719 C 8.078357696533203 5.686088562011719 7.252597808837891 2.984458923339844 5.966998100280762 1.69545841217041 C 5.508577823638916 1.235818862915039 5.037727832794189 1.002769470214844 4.567527770996094 1.002769470214844 M 4.567531108856201 0.00276947021484375 C 7.067894458770752 0.00276947021484375 9.083236694335938 3.84039306640625 9.070717811584473 8.580818176269531 C 9.058177947998047 13.32530879974365 7.018667697906494 17.1771183013916 4.515347957611084 17.18407821655273 C 4.513208866119385 17.18408393859863 4.510682582855225 17.1840877532959 4.508544445037842 17.1840877532959 C 2.008181095123291 17.1840877532959 -0.007161140441894531 13.34646415710449 0.005357742309570312 8.606039047241211 C 0.01789760589599609 3.86154842376709 2.057407855987549 0.009738922119140625 4.560727596282959 0.002779006958007812 C 4.562866687774658 0.002773284912109375 4.565392971038818 0.00276947021484375 4.567531108856201 0.00276947021484375 Z"/>
      </g>
      <g id="Path_48" data-name="Path 48" transform="translate(4.38 14.588) rotate(177)">
        <path class="cls-10" d="M 1.795187830924988 10.95531272888184 L 1.794957876205444 10.95531272888184 C 1.749437808990479 10.95531272888184 1.67839789390564 10.91132259368896 1.604917883872986 10.8376522064209 C 1.052397847175598 10.28367233276367 0.4966978430747986 8.352911949157715 0.5036078691482544 5.734562397003174 C 0.5075178742408752 4.254402160644531 0.6910378336906433 2.869032382965088 1.020367860794067 1.833652377128601 C 1.366067886352539 0.7467923760414124 1.728517889976501 0.5013923645019531 1.828227877616882 0.5011123418807983 C 1.873977899551392 0.5011123418807983 1.94501781463623 0.5451023578643799 2.018497943878174 0.6187723278999329 C 2.571017742156982 1.172752380371094 3.126717805862427 3.103512287139893 3.119807958602905 5.721862316131592 C 3.11589789390564 7.202022552490234 2.932377815246582 8.587392807006836 2.603047847747803 9.622772216796875 C 2.257347822189331 10.70963191986084 1.894897818565369 10.95503234863281 1.795187830924988 10.95531272888184 Z"/>
        <path class="cls-11" d="M 1.826399683952332 1.197939872741699 C 1.700175762176514 1.415977478027344 1.534855365753174 1.791946411132812 1.381457805633545 2.388742446899414 C 1.141027927398682 3.324131965637207 1.006837844848633 4.512842178344727 1.003607749938965 5.73588228225708 C 1.000387907028198 6.955282211303711 1.127577781677246 8.140322685241699 1.361747741699219 9.072722434997559 C 1.510730743408203 9.665915489196777 1.672762870788574 10.04060363769531 1.797014951705933 10.25848293304443 C 1.92323887348175 10.04044723510742 2.088560581207275 9.664482116699219 2.241957902908325 9.067691802978516 C 2.482388019561768 8.132291793823242 2.616577863693237 6.943582534790039 2.619807720184326 5.720542430877686 C 2.623027801513672 4.501142501831055 2.495837688446045 3.316102027893066 2.261667728424072 2.383702278137207 C 2.112684726715088 1.790509223937988 1.95065176486969 1.415820121765137 1.826399683952332 1.197939872741699 M 1.828461647033691 0.001110076904296875 C 2.826362609863281 0.001110076904296875 3.628153800964355 2.561737060546875 3.619807958602905 5.723182201385498 C 3.611447811126709 8.886172294616699 2.795167922973633 11.45253276824951 1.79657781124115 11.45531272888184 C 1.796090245246887 11.45531368255615 1.795441508293152 11.45531463623047 1.794954061508179 11.45531463623047 C 0.7970528602600098 11.45531463623047 -0.004738092422485352 8.894687652587891 0.003607749938964844 5.733242511749268 C 0.01196789741516113 2.570252418518066 0.8282477855682373 0.003882408142089844 1.82683789730072 0.001111984252929688 C 1.827325463294983 0.001111030578613281 1.827974200248718 0.001110076904296875 1.828461647033691 0.001110076904296875 Z"/>
      </g>
    </g>
  </g>
</svg>
