<svg xmlns="http://www.w3.org/2000/svg" viewBox="0 0 76.809 50.895">
  <defs>
    <style>
      .cls-1, .cls-10, .cls-8 {
        fill: #fff;
      }

      .cls-1 {
        stroke: rgba(112,112,112,0.21);
      }

      .cls-11, .cls-2, .cls-4 {
        fill: #208631;
      }

      .cls-2 {
        stroke: rgba(112,112,112,0.53);
      }

      .cls-3 {
        fill: #ededed;
      }

      .cls-3, .cls-5, .cls-7 {
        stroke: rgba(142,139,139,0.31);
      }

      .cls-4 {
        stroke: rgba(112,112,112,0.49);
      }

      .cls-6 {
        fill: rgba(131,131,131,0);
        stroke: rgba(112,112,112,0.31);
      }

      .cls-7 {
        fill: #50a51a;
      }

      .cls-10, .cls-13, .cls-8, .cls-9 {
        stroke: #707070;
      }

      .cls-8 {
        stroke-width: 2px;
      }

      .cls-9 {
        fill: rgba(255,255,255,0.63);
      }

      .cls-11 {
        stroke: #238433;
      }

      .cls-12, .cls-13, .cls-15, .cls-17 {
        fill: none;
      }

      .cls-12 {
        stroke: #28743a;
      }

      .cls-14 {
        fill: rgba(255,255,255,0);
        stroke: rgba(47,103,36,0.6);
      }

      .cls-15 {
        stroke: rgba(112,112,112,0.55);
      }

      .cls-16 {
        stroke: none;
      }
    </style>
  </defs>
  <g id="Group_17" data-name="Group 17" transform="translate(-104 -296.832)">
    <g id="Ellipse_3" data-name="Ellipse 3" class="cls-1" transform="translate(104.888 298.422)">
      <ellipse class="cls-16" cx="37.516" cy="24.652" rx="37.516" ry="24.652"/>
      <ellipse class="cls-17" cx="37.516" cy="24.652" rx="37.016" ry="24.152"/>
    </g>
    <path id="Path_3" data-name="Path 3" class="cls-2" d="M936.737,261.4s1.054.047.838.1c-4,1-29.107,6.827-54.157-.037" transform="translate(-767.977 44.798)"/>
    <path id="Path_4" data-name="Path 4" class="cls-3" d="M699.215,253.57c11.781.207,7.536,22.993,7.536,22.993H665.268s-5.463-24.064,7.37-22.993A191.357,191.357,0,0,0,699.215,253.57Z" transform="translate(-543.635 60.785)"/>
    <path id="Path_6" data-name="Path 6" class="cls-4" d="M883.814,253.734a56.227,56.227,0,0,1,6.079-3.8,47.1,47.1,0,0,1,20.8-5.235,48.145,48.145,0,0,1,19.233,4.128,42.256,42.256,0,0,1,8.066,4.926" transform="translate(-768.395 52.632)"/>
    <g id="Ellipse_4" data-name="Ellipse 4" class="cls-5" transform="translate(123.096 319.594)">
      <ellipse class="cls-16" cx="6.671" cy="7.052" rx="6.671" ry="7.052"/>
      <ellipse class="cls-17" cx="6.671" cy="7.052" rx="6.171" ry="6.552"/>
    </g>
    <g id="Ellipse_10" data-name="Ellipse 10" class="cls-6" transform="translate(124.867 321.652)">
      <ellipse class="cls-16" cx="4.884" cy="4.978" rx="4.884" ry="4.978"/>
      <ellipse class="cls-17" cx="4.884" cy="4.978" rx="4.384" ry="4.478"/>
    </g>
    <g id="Ellipse_9" data-name="Ellipse 9" class="cls-6" transform="translate(123.979 320.704)">
      <ellipse class="cls-16" cx="5.772" cy="5.926" rx="5.772" ry="5.926"/>
      <ellipse class="cls-17" cx="5.772" cy="5.926" rx="5.272" ry="5.426"/>
    </g>
    <g id="Ellipse_12" data-name="Ellipse 12" class="cls-6" transform="translate(125.755 322.6)">
      <ellipse class="cls-16" cx="3.996" cy="4.03" rx="3.996" ry="4.03"/>
      <ellipse class="cls-17" cx="3.996" cy="4.03" rx="3.496" ry="3.53"/>
    </g>
    <g id="Ellipse_11" data-name="Ellipse 11" class="cls-6" transform="translate(126.643 323.549)">
      <ellipse class="cls-16" cx="3.108" cy="3.082" rx="3.108" ry="3.082"/>
      <ellipse class="cls-17" cx="3.108" cy="3.082" rx="2.608" ry="2.582"/>
    </g>
    <g id="Ellipse_13" data-name="Ellipse 13" class="cls-6" transform="translate(127.531 324.497)">
      <ellipse class="cls-16" cx="2.22" cy="2.133" rx="2.22" ry="2.133"/>
      <ellipse class="cls-17" cx="2.22" cy="2.133" rx="1.72" ry="1.633"/>
    </g>
    <g id="Ellipse_5" data-name="Ellipse 5" class="cls-7" transform="translate(128.896 325.728)">
      <ellipse class="cls-16" cx="0.871" cy="0.918" rx="0.871" ry="0.918"/>
      <ellipse class="cls-17" cx="0.871" cy="0.918" rx="0.371" ry="0.418"/>
    </g>
    <g id="Ellipse_4-2" data-name="Ellipse 4" class="cls-5" transform="translate(148.846 319.594)">
      <ellipse class="cls-16" cx="6.671" cy="7.052" rx="6.671" ry="7.052"/>
      <ellipse class="cls-17" cx="6.671" cy="7.052" rx="6.171" ry="6.552"/>
    </g>
    <g id="Ellipse_10-2" data-name="Ellipse 10" class="cls-6" transform="translate(150.618 321.652)">
      <ellipse class="cls-16" cx="4.884" cy="4.978" rx="4.884" ry="4.978"/>
      <ellipse class="cls-17" cx="4.884" cy="4.978" rx="4.384" ry="4.478"/>
    </g>
    <g id="Ellipse_9-2" data-name="Ellipse 9" class="cls-6" transform="translate(149.73 320.704)">
      <ellipse class="cls-16" cx="5.772" cy="5.926" rx="5.772" ry="5.926"/>
      <ellipse class="cls-17" cx="5.772" cy="5.926" rx="5.272" ry="5.426"/>
    </g>
    <g id="Ellipse_12-2" data-name="Ellipse 12" class="cls-6" transform="translate(151.506 322.6)">
      <ellipse class="cls-16" cx="3.996" cy="4.03" rx="3.996" ry="4.03"/>
      <ellipse class="cls-17" cx="3.996" cy="4.03" rx="3.496" ry="3.53"/>
    </g>
    <g id="Ellipse_11-2" data-name="Ellipse 11" class="cls-6" transform="translate(152.394 323.549)">
      <ellipse class="cls-16" cx="3.108" cy="3.082" rx="3.108" ry="3.082"/>
      <ellipse class="cls-17" cx="3.108" cy="3.082" rx="2.608" ry="2.582"/>
    </g>
    <g id="Ellipse_13-2" data-name="Ellipse 13" class="cls-6" transform="translate(153.282 324.497)">
      <ellipse class="cls-16" cx="2.22" cy="2.133" rx="2.22" ry="2.133"/>
      <ellipse class="cls-17" cx="2.22" cy="2.133" rx="1.72" ry="1.633"/>
    </g>
    <g id="Ellipse_5-2" data-name="Ellipse 5" class="cls-7" transform="translate(154.647 325.728)">
      <ellipse class="cls-16" cx="0.871" cy="0.918" rx="0.871" ry="0.918"/>
      <ellipse class="cls-17" cx="0.871" cy="0.918" rx="0.371" ry="0.418"/>
    </g>
    <g id="Ellipse_14" data-name="Ellipse 14" class="cls-8" transform="translate(104.444 316.911)">
      <ellipse class="cls-16" cx="2.886" cy="7.348" rx="2.886" ry="7.348"/>
      <ellipse class="cls-17" cx="2.886" cy="7.348" rx="1.886" ry="6.348"/>
    </g>
    <g id="Ellipse_15" data-name="Ellipse 15" class="cls-9" transform="translate(104.888 316.911)">
      <ellipse class="cls-16" cx="2.886" cy="7.348" rx="2.886" ry="7.348"/>
      <ellipse class="cls-17" cx="2.886" cy="7.348" rx="2.386" ry="6.848"/>
    </g>
    <g id="Ellipse_16" data-name="Ellipse 16" class="cls-10" transform="translate(104.888 317.86)">
      <ellipse class="cls-16" cx="2.22" cy="6.4" rx="2.22" ry="6.4"/>
      <ellipse class="cls-17" cx="2.22" cy="6.4" rx="1.72" ry="5.9"/>
    </g>
    <g id="Ellipse_17" data-name="Ellipse 17" class="cls-11" transform="translate(104 320.704)">
      <ellipse class="cls-16" cx="1.776" cy="3.556" rx="1.776" ry="3.556"/>
      <ellipse class="cls-17" cx="1.776" cy="3.556" rx="1.276" ry="3.056"/>
    </g>
    <path id="Path_7" data-name="Path 7" class="cls-12" d="M1010.739,535a2.3,2.3,0,0,1,1.149,1.01,8.983,8.983,0,0,1,.387,1.291,8.122,8.122,0,0,1,.075,2.169,8.335,8.335,0,0,1-.277,1.1c-.178.525-.175.829-.772,1.163s-.6-.117-.6-.117" transform="translate(-905.057 -214.296)"/>
    <path id="Path_8" data-name="Path 8" class="cls-13" d="M1010.46,535c-.028.059-.165,0-.165,0v.249" transform="translate(-904.832 -214.296)"/>
    <g id="Ellipse_14-2" data-name="Ellipse 14" class="cls-8" transform="translate(180.809 331.608) rotate(180)">
      <ellipse class="cls-16" cx="2.886" cy="7.348" rx="2.886" ry="7.348"/>
      <ellipse class="cls-17" cx="2.886" cy="7.348" rx="1.886" ry="6.348"/>
    </g>
    <g id="Ellipse_15-2" data-name="Ellipse 15" class="cls-9" transform="translate(180.365 331.608) rotate(180)">
      <ellipse class="cls-16" cx="2.886" cy="7.348" rx="2.886" ry="7.348"/>
      <ellipse class="cls-17" cx="2.886" cy="7.348" rx="2.386" ry="6.848"/>
    </g>
    <g id="Ellipse_16-2" data-name="Ellipse 16" class="cls-10" transform="translate(180.365 330.66) rotate(180)">
      <ellipse class="cls-16" cx="2.22" cy="6.4" rx="2.22" ry="6.4"/>
      <ellipse class="cls-17" cx="2.22" cy="6.4" rx="1.72" ry="5.9"/>
    </g>
    <g id="Ellipse_17-2" data-name="Ellipse 17" class="cls-11" transform="translate(180.809 327.815) rotate(180)">
      <ellipse class="cls-16" cx="1.766" cy="3.556" rx="1.766" ry="3.556"/>
      <ellipse class="cls-17" cx="1.766" cy="3.556" rx="1.266" ry="3.056"/>
    </g>
    <path id="Path_7-2" data-name="Path 7" class="cls-12" d="M.038,0A2.289,2.289,0,0,1,1.181,1.01,9.024,9.024,0,0,1,1.565,2.3,8.173,8.173,0,0,1,1.639,4.47a8.38,8.38,0,0,1-.275,1.1C1.187,6.092,1.19,6.4.6,6.731S0,6.613,0,6.613" transform="translate(179.175 327.815) rotate(180)"/>
    <path id="Path_8-2" data-name="Path 8" class="cls-13" d="M.164,0C.136.059,0,0,0,0V.249" transform="translate(179.354 327.815) rotate(180)"/>
    <g id="Ellipse_19" data-name="Ellipse 19" class="cls-14" transform="translate(126.643 297)">
      <ellipse class="cls-16" cx="15.983" cy="4.741" rx="15.983" ry="4.741"/>
      <ellipse class="cls-17" cx="15.983" cy="4.741" rx="15.483" ry="4.241"/>
    </g>
    <path id="Path_35" data-name="Path 35" class="cls-15" d="M1127.12,653.612c-.059,2.523,3.372,2.873,5.276,2.177,1.2-.436,1.1-2.177,1.1-2.177" transform="translate(-987.548 -313.18)"/>
  </g>
</svg>
